STARTFONT 2.1
COMMENT Exported by Fony v1.4.7
FONT Wizzard12_
SIZE 17 100 100
FONTBOUNDINGBOX 10 16 0 -6
STARTPROPERTIES 6
COPYRIGHT "pentacom"
RESOLUTION_X 100
RESOLUTION_Y 100
FONT_ASCENT 11
FONT_DESCENT 6
DEFAULT_CHAR 0
ENDPROPERTIES
CHARS 326
STARTCHAR 000
ENCODING 0
SWIDTH 72 0
DWIDTH 1 0
BBX 0 0 0 0
BITMAP
ENDCHAR
STARTCHAR 001
ENCODING 1
SWIDTH 72 0
DWIDTH 1 0
BBX 0 0 0 0
BITMAP
ENDCHAR
STARTCHAR 002
ENCODING 2
SWIDTH 72 0
DWIDTH 1 0
BBX 0 0 0 0
BITMAP
ENDCHAR
STARTCHAR 003
ENCODING 3
SWIDTH 72 0
DWIDTH 1 0
BBX 0 0 0 0
BITMAP
ENDCHAR
STARTCHAR 004
ENCODING 4
SWIDTH 72 0
DWIDTH 1 0
BBX 0 0 0 0
BITMAP
ENDCHAR
STARTCHAR 005
ENCODING 5
SWIDTH 72 0
DWIDTH 1 0
BBX 0 0 0 0
BITMAP
ENDCHAR
STARTCHAR 006
ENCODING 6
SWIDTH 72 0
DWIDTH 1 0
BBX 0 0 0 0
BITMAP
ENDCHAR
STARTCHAR 007
ENCODING 7
SWIDTH 72 0
DWIDTH 1 0
BBX 0 0 0 0
BITMAP
ENDCHAR
STARTCHAR 008
ENCODING 8
SWIDTH 72 0
DWIDTH 1 0
BBX 0 0 0 0
BITMAP
ENDCHAR
STARTCHAR 009
ENCODING 9
SWIDTH 72 0
DWIDTH 1 0
BBX 0 0 0 0
BITMAP
ENDCHAR
STARTCHAR 010
ENCODING 10
SWIDTH 72 0
DWIDTH 1 0
BBX 0 0 0 0
BITMAP
ENDCHAR
STARTCHAR 011
ENCODING 11
SWIDTH 72 0
DWIDTH 1 0
BBX 0 0 0 0
BITMAP
ENDCHAR
STARTCHAR 012
ENCODING 12
SWIDTH 72 0
DWIDTH 1 0
BBX 0 0 0 0
BITMAP
ENDCHAR
STARTCHAR 013
ENCODING 13
SWIDTH 72 0
DWIDTH 1 0
BBX 0 0 0 0
BITMAP
ENDCHAR
STARTCHAR 014
ENCODING 14
SWIDTH 72 0
DWIDTH 1 0
BBX 0 0 0 0
BITMAP
ENDCHAR
STARTCHAR 015
ENCODING 15
SWIDTH 72 0
DWIDTH 1 0
BBX 0 0 0 0
BITMAP
ENDCHAR
STARTCHAR 016
ENCODING 16
SWIDTH 72 0
DWIDTH 1 0
BBX 0 0 0 0
BITMAP
ENDCHAR
STARTCHAR 017
ENCODING 17
SWIDTH 72 0
DWIDTH 1 0
BBX 0 0 0 0
BITMAP
ENDCHAR
STARTCHAR 018
ENCODING 18
SWIDTH 72 0
DWIDTH 1 0
BBX 0 0 0 0
BITMAP
ENDCHAR
STARTCHAR 019
ENCODING 19
SWIDTH 72 0
DWIDTH 1 0
BBX 0 0 0 0
BITMAP
ENDCHAR
STARTCHAR 020
ENCODING 20
SWIDTH 72 0
DWIDTH 1 0
BBX 0 0 0 0
BITMAP
ENDCHAR
STARTCHAR 021
ENCODING 21
SWIDTH 72 0
DWIDTH 1 0
BBX 0 0 0 0
BITMAP
ENDCHAR
STARTCHAR 022
ENCODING 22
SWIDTH 72 0
DWIDTH 1 0
BBX 0 0 0 0
BITMAP
ENDCHAR
STARTCHAR 023
ENCODING 23
SWIDTH 72 0
DWIDTH 1 0
BBX 0 0 0 0
BITMAP
ENDCHAR
STARTCHAR 024
ENCODING 24
SWIDTH 72 0
DWIDTH 1 0
BBX 0 0 0 0
BITMAP
ENDCHAR
STARTCHAR 025
ENCODING 25
SWIDTH 72 0
DWIDTH 1 0
BBX 0 0 0 0
BITMAP
ENDCHAR
STARTCHAR 026
ENCODING 26
SWIDTH 72 0
DWIDTH 1 0
BBX 0 0 0 0
BITMAP
ENDCHAR
STARTCHAR 027
ENCODING 27
SWIDTH 72 0
DWIDTH 1 0
BBX 0 0 0 0
BITMAP
ENDCHAR
STARTCHAR 028
ENCODING 28
SWIDTH 72 0
DWIDTH 1 0
BBX 0 0 0 0
BITMAP
ENDCHAR
STARTCHAR 029
ENCODING 29
SWIDTH 72 0
DWIDTH 1 0
BBX 0 0 0 0
BITMAP
ENDCHAR
STARTCHAR 030
ENCODING 30
SWIDTH 72 0
DWIDTH 1 0
BBX 0 0 0 0
BITMAP
ENDCHAR
STARTCHAR 031
ENCODING 31
SWIDTH 72 0
DWIDTH 1 0
BBX 0 0 0 0
BITMAP
ENDCHAR
STARTCHAR 032
ENCODING 32
SWIDTH 360 0
DWIDTH 5 0
BBX 0 0 0 0
BITMAP
ENDCHAR
STARTCHAR 033
ENCODING 33
SWIDTH 216 0
DWIDTH 3 0
BBX 1 8 1 0
BITMAP
80
80
80
80
80
80
00
80
ENDCHAR
STARTCHAR 034
ENCODING 34
SWIDTH 288 0
DWIDTH 4 0
BBX 3 3 0 5
BITMAP
A0
A0
A0
ENDCHAR
STARTCHAR 035
ENCODING 35
SWIDTH 504 0
DWIDTH 7 0
BBX 6 8 0 0
BITMAP
28
28
FC
50
50
FC
50
50
ENDCHAR
STARTCHAR 036
ENCODING 36
SWIDTH 432 0
DWIDTH 6 0
BBX 5 9 0 0
BITMAP
20
70
A8
A0
70
28
A8
70
20
ENDCHAR
STARTCHAR 037
ENCODING 37
SWIDTH 720 0
DWIDTH 10 0
BBX 8 8 1 0
BITMAP
44
A4
A8
48
12
15
25
22
ENDCHAR
STARTCHAR 038
ENCODING 38
SWIDTH 576 0
DWIDTH 8 0
BBX 7 8 0 0
BITMAP
30
48
48
30
52
8C
8C
72
ENDCHAR
STARTCHAR 039
ENCODING 39
SWIDTH 144 0
DWIDTH 2 0
BBX 1 3 0 5
BITMAP
80
80
80
ENDCHAR
STARTCHAR 040
ENCODING 40
SWIDTH 288 0
DWIDTH 4 0
BBX 3 10 0 -2
BITMAP
20
40
40
80
80
80
80
40
40
20
ENDCHAR
STARTCHAR 041
ENCODING 41
SWIDTH 288 0
DWIDTH 4 0
BBX 3 10 0 -2
BITMAP
80
40
40
20
20
20
20
40
40
80
ENDCHAR
STARTCHAR 042
ENCODING 42
SWIDTH 432 0
DWIDTH 6 0
BBX 5 3 0 4
BITMAP
A8
70
A8
ENDCHAR
STARTCHAR 043
ENCODING 43
SWIDTH 432 0
DWIDTH 6 0
BBX 5 5 0 1
BITMAP
20
20
F8
20
20
ENDCHAR
STARTCHAR 044
ENCODING 44
SWIDTH 216 0
DWIDTH 3 0
BBX 2 3 0 -2
BITMAP
40
40
80
ENDCHAR
STARTCHAR 045
ENCODING 45
SWIDTH 288 0
DWIDTH 4 0
BBX 3 1 0 2
BITMAP
E0
ENDCHAR
STARTCHAR 046
ENCODING 46
SWIDTH 216 0
DWIDTH 3 0
BBX 1 1 1 0
BITMAP
80
ENDCHAR
STARTCHAR 047
ENCODING 47
SWIDTH 288 0
DWIDTH 4 0
BBX 3 9 0 -1
BITMAP
20
20
20
40
40
40
80
80
80
ENDCHAR
STARTCHAR 048
ENCODING 48
SWIDTH 432 0
DWIDTH 6 0
BBX 5 8 0 0
BITMAP
70
88
88
88
88
88
88
70
ENDCHAR
STARTCHAR 049
ENCODING 49
SWIDTH 360 0
DWIDTH 5 0
BBX 3 8 1 0
BITMAP
20
60
A0
20
20
20
20
20
ENDCHAR
STARTCHAR 050
ENCODING 50
SWIDTH 432 0
DWIDTH 6 0
BBX 5 8 0 0
BITMAP
70
88
08
10
20
40
80
F8
ENDCHAR
STARTCHAR 051
ENCODING 51
SWIDTH 432 0
DWIDTH 6 0
BBX 5 8 0 0
BITMAP
70
88
08
30
08
08
88
70
ENDCHAR
STARTCHAR 052
ENCODING 52
SWIDTH 504 0
DWIDTH 7 0
BBX 6 8 0 0
BITMAP
08
18
28
48
88
FC
08
08
ENDCHAR
STARTCHAR 053
ENCODING 53
SWIDTH 432 0
DWIDTH 6 0
BBX 5 8 0 0
BITMAP
F8
80
80
F0
08
08
88
70
ENDCHAR
STARTCHAR 054
ENCODING 54
SWIDTH 432 0
DWIDTH 6 0
BBX 5 8 0 0
BITMAP
70
88
80
F0
88
88
88
70
ENDCHAR
STARTCHAR 055
ENCODING 55
SWIDTH 432 0
DWIDTH 6 0
BBX 5 8 0 0
BITMAP
F8
08
10
10
20
20
40
40
ENDCHAR
STARTCHAR 056
ENCODING 56
SWIDTH 432 0
DWIDTH 6 0
BBX 5 8 0 0
BITMAP
70
88
88
70
88
88
88
70
ENDCHAR
STARTCHAR 057
ENCODING 57
SWIDTH 432 0
DWIDTH 6 0
BBX 5 8 0 0
BITMAP
70
88
88
88
78
08
08
70
ENDCHAR
STARTCHAR 058
ENCODING 58
SWIDTH 216 0
DWIDTH 3 0
BBX 1 5 1 0
BITMAP
80
00
00
00
80
ENDCHAR
STARTCHAR 059
ENCODING 59
SWIDTH 216 0
DWIDTH 3 0
BBX 2 7 0 -2
BITMAP
40
00
00
00
40
40
80
ENDCHAR
STARTCHAR 060
ENCODING 60
SWIDTH 504 0
DWIDTH 7 0
BBX 6 5 0 1
BITMAP
0C
30
C0
30
0C
ENDCHAR
STARTCHAR 061
ENCODING 61
SWIDTH 432 0
DWIDTH 6 0
BBX 5 3 0 2
BITMAP
F8
00
F8
ENDCHAR
STARTCHAR 062
ENCODING 62
SWIDTH 504 0
DWIDTH 7 0
BBX 6 5 0 1
BITMAP
C0
30
0C
30
C0
ENDCHAR
STARTCHAR 063
ENCODING 63
SWIDTH 432 0
DWIDTH 6 0
BBX 5 8 0 0
BITMAP
70
88
88
10
20
20
00
20
ENDCHAR
STARTCHAR 064
ENCODING 64
SWIDTH 720 0
DWIDTH 10 0
BBX 8 8 1 -1
BITMAP
3C
42
9D
A5
A5
9E
41
3E
ENDCHAR
STARTCHAR 065
ENCODING 65
SWIDTH 576 0
DWIDTH 8 0
BBX 7 8 0 0
BITMAP
10
10
28
28
44
7C
82
82
ENDCHAR
STARTCHAR 066
ENCODING 66
SWIDTH 504 0
DWIDTH 7 0
BBX 5 8 1 0
BITMAP
F0
88
88
F0
88
88
88
F0
ENDCHAR
STARTCHAR 067
ENCODING 67
SWIDTH 576 0
DWIDTH 8 0
BBX 7 8 0 0
BITMAP
3C
42
80
80
80
80
42
3C
ENDCHAR
STARTCHAR 068
ENCODING 68
SWIDTH 576 0
DWIDTH 8 0
BBX 6 8 1 0
BITMAP
F0
88
84
84
84
84
88
F0
ENDCHAR
STARTCHAR 069
ENCODING 69
SWIDTH 504 0
DWIDTH 7 0
BBX 5 8 1 0
BITMAP
F8
80
80
F0
80
80
80
F8
ENDCHAR
STARTCHAR 070
ENCODING 70
SWIDTH 504 0
DWIDTH 7 0
BBX 5 8 1 0
BITMAP
F8
80
80
F0
80
80
80
80
ENDCHAR
STARTCHAR 071
ENCODING 71
SWIDTH 576 0
DWIDTH 8 0
BBX 7 8 0 0
BITMAP
3C
42
80
80
8E
82
42
3C
ENDCHAR
STARTCHAR 072
ENCODING 72
SWIDTH 576 0
DWIDTH 8 0
BBX 6 8 1 0
BITMAP
84
84
84
FC
84
84
84
84
ENDCHAR
STARTCHAR 073
ENCODING 73
SWIDTH 216 0
DWIDTH 3 0
BBX 1 8 1 0
BITMAP
80
80
80
80
80
80
80
80
ENDCHAR
STARTCHAR 074
ENCODING 74
SWIDTH 360 0
DWIDTH 5 0
BBX 4 8 0 0
BITMAP
10
10
10
10
10
10
90
60
ENDCHAR
STARTCHAR 075
ENCODING 75
SWIDTH 576 0
DWIDTH 8 0
BBX 6 8 1 0
BITMAP
88
90
A0
C0
A0
90
88
84
ENDCHAR
STARTCHAR 076
ENCODING 76
SWIDTH 504 0
DWIDTH 7 0
BBX 5 8 1 0
BITMAP
80
80
80
80
80
80
80
F8
ENDCHAR
STARTCHAR 077
ENCODING 77
SWIDTH 648 0
DWIDTH 9 0
BBX 7 8 1 0
BITMAP
82
C6
C6
AA
AA
92
92
82
ENDCHAR
STARTCHAR 078
ENCODING 78
SWIDTH 504 0
DWIDTH 7 0
BBX 5 8 1 0
BITMAP
88
C8
C8
A8
A8
98
98
88
ENDCHAR
STARTCHAR 079
ENCODING 79
SWIDTH 576 0
DWIDTH 8 0
BBX 7 8 0 0
BITMAP
38
44
82
82
82
82
44
38
ENDCHAR
STARTCHAR 080
ENCODING 80
SWIDTH 504 0
DWIDTH 7 0
BBX 5 8 1 0
BITMAP
F0
88
88
88
F0
80
80
80
ENDCHAR
STARTCHAR 081
ENCODING 81
SWIDTH 576 0
DWIDTH 8 0
BBX 7 8 0 0
BITMAP
38
44
82
82
82
82
4C
3E
ENDCHAR
STARTCHAR 082
ENCODING 82
SWIDTH 576 0
DWIDTH 8 0
BBX 6 8 1 0
BITMAP
F8
84
84
84
F8
90
88
84
ENDCHAR
STARTCHAR 083
ENCODING 83
SWIDTH 504 0
DWIDTH 7 0
BBX 5 8 1 0
BITMAP
70
88
80
60
10
08
88
70
ENDCHAR
STARTCHAR 084
ENCODING 84
SWIDTH 432 0
DWIDTH 6 0
BBX 5 8 0 0
BITMAP
F8
20
20
20
20
20
20
20
ENDCHAR
STARTCHAR 085
ENCODING 85
SWIDTH 576 0
DWIDTH 8 0
BBX 6 8 1 0
BITMAP
84
84
84
84
84
84
84
78
ENDCHAR
STARTCHAR 086
ENCODING 86
SWIDTH 576 0
DWIDTH 8 0
BBX 7 8 0 0
BITMAP
82
82
44
44
28
28
10
10
ENDCHAR
STARTCHAR 087
ENCODING 87
SWIDTH 720 0
DWIDTH 10 0
BBX 9 8 0 0
BITMAP
8880
8880
8880
5500
5500
5500
2200
2200
ENDCHAR
STARTCHAR 088
ENCODING 88
SWIDTH 504 0
DWIDTH 7 0
BBX 5 8 1 0
BITMAP
88
50
50
20
20
50
50
88
ENDCHAR
STARTCHAR 089
ENCODING 89
SWIDTH 432 0
DWIDTH 6 0
BBX 5 8 0 0
BITMAP
88
88
50
50
20
20
20
20
ENDCHAR
STARTCHAR 090
ENCODING 90
SWIDTH 504 0
DWIDTH 7 0
BBX 6 8 0 0
BITMAP
FC
04
08
10
20
40
80
FC
ENDCHAR
STARTCHAR 091
ENCODING 91
SWIDTH 288 0
DWIDTH 4 0
BBX 2 10 1 -2
BITMAP
C0
80
80
80
80
80
80
80
80
C0
ENDCHAR
STARTCHAR 092
ENCODING 92
SWIDTH 288 0
DWIDTH 4 0
BBX 3 9 0 -1
BITMAP
80
80
80
40
40
40
20
20
20
ENDCHAR
STARTCHAR 093
ENCODING 93
SWIDTH 216 0
DWIDTH 3 0
BBX 2 10 0 -2
BITMAP
C0
40
40
40
40
40
40
40
40
C0
ENDCHAR
STARTCHAR 094
ENCODING 94
SWIDTH 432 0
DWIDTH 6 0
BBX 5 5 0 3
BITMAP
20
50
50
88
88
ENDCHAR
STARTCHAR 095
ENCODING 95
SWIDTH 504 0
DWIDTH 7 0
BBX 6 1 0 -2
BITMAP
FC
ENDCHAR
STARTCHAR 096
ENCODING 96
SWIDTH 216 0
DWIDTH 3 0
BBX 2 2 0 6
BITMAP
80
40
ENDCHAR
STARTCHAR 097
ENCODING 97
SWIDTH 432 0
DWIDTH 6 0
BBX 5 5 0 0
BITMAP
70
88
78
88
78
ENDCHAR
STARTCHAR 098
ENCODING 98
SWIDTH 504 0
DWIDTH 7 0
BBX 5 8 1 0
BITMAP
80
80
80
F0
88
88
88
F0
ENDCHAR
STARTCHAR 099
ENCODING 99
SWIDTH 432 0
DWIDTH 6 0
BBX 5 5 0 0
BITMAP
70
88
80
88
70
ENDCHAR
STARTCHAR 100
ENCODING 100
SWIDTH 432 0
DWIDTH 6 0
BBX 5 8 0 0
BITMAP
08
08
08
78
88
88
88
78
ENDCHAR
STARTCHAR 101
ENCODING 101
SWIDTH 432 0
DWIDTH 6 0
BBX 5 5 0 0
BITMAP
70
88
F8
80
78
ENDCHAR
STARTCHAR 102
ENCODING 102
SWIDTH 288 0
DWIDTH 4 0
BBX 3 8 0 0
BITMAP
20
40
40
E0
40
40
40
40
ENDCHAR
STARTCHAR 103
ENCODING 103
SWIDTH 432 0
DWIDTH 6 0
BBX 5 7 0 -2
BITMAP
78
88
88
88
78
08
70
ENDCHAR
STARTCHAR 104
ENCODING 104
SWIDTH 504 0
DWIDTH 7 0
BBX 5 8 1 0
BITMAP
80
80
80
F0
88
88
88
88
ENDCHAR
STARTCHAR 105
ENCODING 105
SWIDTH 216 0
DWIDTH 3 0
BBX 1 7 1 0
BITMAP
80
00
80
80
80
80
80
ENDCHAR
STARTCHAR 106
ENCODING 106
SWIDTH 216 0
DWIDTH 3 0
BBX 2 9 0 -2
BITMAP
40
00
40
40
40
40
40
40
80
ENDCHAR
STARTCHAR 107
ENCODING 107
SWIDTH 432 0
DWIDTH 6 0
BBX 4 8 1 0
BITMAP
80
80
80
90
A0
C0
A0
90
ENDCHAR
STARTCHAR 108
ENCODING 108
SWIDTH 216 0
DWIDTH 3 0
BBX 1 8 1 0
BITMAP
80
80
80
80
80
80
80
80
ENDCHAR
STARTCHAR 109
ENCODING 109
SWIDTH 648 0
DWIDTH 9 0
BBX 7 5 1 0
BITMAP
EC
92
92
92
92
ENDCHAR
STARTCHAR 110
ENCODING 110
SWIDTH 504 0
DWIDTH 7 0
BBX 5 5 1 0
BITMAP
F0
88
88
88
88
ENDCHAR
STARTCHAR 111
ENCODING 111
SWIDTH 432 0
DWIDTH 6 0
BBX 5 5 0 0
BITMAP
70
88
88
88
70
ENDCHAR
STARTCHAR 112
ENCODING 112
SWIDTH 504 0
DWIDTH 7 0
BBX 5 7 1 -2
BITMAP
F0
88
88
88
F0
80
80
ENDCHAR
STARTCHAR 113
ENCODING 113
SWIDTH 432 0
DWIDTH 6 0
BBX 5 7 0 -2
BITMAP
78
88
88
88
78
08
08
ENDCHAR
STARTCHAR 114
ENCODING 114
SWIDTH 432 0
DWIDTH 6 0
BBX 4 5 1 0
BITMAP
B0
C0
80
80
80
ENDCHAR
STARTCHAR 115
ENCODING 115
SWIDTH 360 0
DWIDTH 5 0
BBX 4 5 0 0
BITMAP
70
80
60
10
E0
ENDCHAR
STARTCHAR 116
ENCODING 116
SWIDTH 288 0
DWIDTH 4 0
BBX 3 7 0 0
BITMAP
40
40
E0
40
40
40
20
ENDCHAR
STARTCHAR 117
ENCODING 117
SWIDTH 504 0
DWIDTH 7 0
BBX 5 5 1 0
BITMAP
88
88
88
88
78
ENDCHAR
STARTCHAR 118
ENCODING 118
SWIDTH 432 0
DWIDTH 6 0
BBX 5 5 0 0
BITMAP
88
88
50
50
20
ENDCHAR
STARTCHAR 119
ENCODING 119
SWIDTH 576 0
DWIDTH 8 0
BBX 7 5 0 0
BITMAP
92
92
AA
44
44
ENDCHAR
STARTCHAR 120
ENCODING 120
SWIDTH 432 0
DWIDTH 6 0
BBX 5 5 0 0
BITMAP
88
50
20
50
88
ENDCHAR
STARTCHAR 121
ENCODING 121
SWIDTH 432 0
DWIDTH 6 0
BBX 5 7 0 -2
BITMAP
88
88
50
50
20
20
C0
ENDCHAR
STARTCHAR 122
ENCODING 122
SWIDTH 432 0
DWIDTH 6 0
BBX 5 5 0 0
BITMAP
F8
10
20
40
F8
ENDCHAR
STARTCHAR 123
ENCODING 123
SWIDTH 288 0
DWIDTH 4 0
BBX 3 11 0 -3
BITMAP
20
40
40
40
40
80
40
40
40
40
20
ENDCHAR
STARTCHAR 124
ENCODING 124
SWIDTH 216 0
DWIDTH 3 0
BBX 1 10 1 -2
BITMAP
80
80
80
80
80
80
80
80
80
80
ENDCHAR
STARTCHAR 125
ENCODING 125
SWIDTH 288 0
DWIDTH 4 0
BBX 3 11 0 -3
BITMAP
80
40
40
40
40
20
40
40
40
40
80
ENDCHAR
STARTCHAR 126
ENCODING 126
SWIDTH 432 0
DWIDTH 6 0
BBX 4 2 1 3
BITMAP
50
A0
ENDCHAR
STARTCHAR 127
ENCODING 127
SWIDTH 216 0
DWIDTH 3 0
BBX 0 0 0 0
BITMAP
ENDCHAR
STARTCHAR 128
ENCODING 128
SWIDTH 72 0
DWIDTH 1 0
BBX 0 0 0 0
BITMAP
ENDCHAR
STARTCHAR 129
ENCODING 129
SWIDTH 72 0
DWIDTH 1 0
BBX 0 0 0 0
BITMAP
ENDCHAR
STARTCHAR 130
ENCODING 130
SWIDTH 72 0
DWIDTH 1 0
BBX 0 0 0 0
BITMAP
ENDCHAR
STARTCHAR 131
ENCODING 131
SWIDTH 72 0
DWIDTH 1 0
BBX 0 0 0 0
BITMAP
ENDCHAR
STARTCHAR 132
ENCODING 132
SWIDTH 72 0
DWIDTH 1 0
BBX 0 0 0 0
BITMAP
ENDCHAR
STARTCHAR 133
ENCODING 133
SWIDTH 72 0
DWIDTH 1 0
BBX 0 0 0 0
BITMAP
ENDCHAR
STARTCHAR 134
ENCODING 134
SWIDTH 72 0
DWIDTH 1 0
BBX 0 0 0 0
BITMAP
ENDCHAR
STARTCHAR 135
ENCODING 135
SWIDTH 72 0
DWIDTH 1 0
BBX 0 0 0 0
BITMAP
ENDCHAR
STARTCHAR 136
ENCODING 136
SWIDTH 72 0
DWIDTH 1 0
BBX 0 0 0 0
BITMAP
ENDCHAR
STARTCHAR 137
ENCODING 137
SWIDTH 72 0
DWIDTH 1 0
BBX 0 0 0 0
BITMAP
ENDCHAR
STARTCHAR 138
ENCODING 138
SWIDTH 72 0
DWIDTH 1 0
BBX 0 0 0 0
BITMAP
ENDCHAR
STARTCHAR 139
ENCODING 139
SWIDTH 72 0
DWIDTH 1 0
BBX 0 0 0 0
BITMAP
ENDCHAR
STARTCHAR 140
ENCODING 140
SWIDTH 72 0
DWIDTH 1 0
BBX 0 0 0 0
BITMAP
ENDCHAR
STARTCHAR 141
ENCODING 141
SWIDTH 72 0
DWIDTH 1 0
BBX 0 0 0 0
BITMAP
ENDCHAR
STARTCHAR 142
ENCODING 142
SWIDTH 72 0
DWIDTH 1 0
BBX 0 0 0 0
BITMAP
ENDCHAR
STARTCHAR 143
ENCODING 143
SWIDTH 72 0
DWIDTH 1 0
BBX 0 0 0 0
BITMAP
ENDCHAR
STARTCHAR 144
ENCODING 144
SWIDTH 72 0
DWIDTH 1 0
BBX 0 0 0 0
BITMAP
ENDCHAR
STARTCHAR 145
ENCODING 145
SWIDTH 72 0
DWIDTH 1 0
BBX 0 0 0 0
BITMAP
ENDCHAR
STARTCHAR 146
ENCODING 146
SWIDTH 72 0
DWIDTH 1 0
BBX 0 0 0 0
BITMAP
ENDCHAR
STARTCHAR 147
ENCODING 147
SWIDTH 72 0
DWIDTH 1 0
BBX 0 0 0 0
BITMAP
ENDCHAR
STARTCHAR 148
ENCODING 148
SWIDTH 72 0
DWIDTH 1 0
BBX 0 0 0 0
BITMAP
ENDCHAR
STARTCHAR 149
ENCODING 149
SWIDTH 72 0
DWIDTH 1 0
BBX 0 0 0 0
BITMAP
ENDCHAR
STARTCHAR 150
ENCODING 150
SWIDTH 72 0
DWIDTH 1 0
BBX 0 0 0 0
BITMAP
ENDCHAR
STARTCHAR 151
ENCODING 151
SWIDTH 72 0
DWIDTH 1 0
BBX 0 0 0 0
BITMAP
ENDCHAR
STARTCHAR 152
ENCODING 152
SWIDTH 72 0
DWIDTH 1 0
BBX 0 0 0 0
BITMAP
ENDCHAR
STARTCHAR 153
ENCODING 153
SWIDTH 72 0
DWIDTH 1 0
BBX 0 0 0 0
BITMAP
ENDCHAR
STARTCHAR 154
ENCODING 154
SWIDTH 72 0
DWIDTH 1 0
BBX 0 0 0 0
BITMAP
ENDCHAR
STARTCHAR 155
ENCODING 155
SWIDTH 72 0
DWIDTH 1 0
BBX 0 0 0 0
BITMAP
ENDCHAR
STARTCHAR 156
ENCODING 156
SWIDTH 72 0
DWIDTH 1 0
BBX 0 0 0 0
BITMAP
ENDCHAR
STARTCHAR 157
ENCODING 157
SWIDTH 72 0
DWIDTH 1 0
BBX 0 0 0 0
BITMAP
ENDCHAR
STARTCHAR 158
ENCODING 158
SWIDTH 72 0
DWIDTH 1 0
BBX 0 0 0 0
BITMAP
ENDCHAR
STARTCHAR 159
ENCODING 159
SWIDTH 72 0
DWIDTH 1 0
BBX 0 0 0 0
BITMAP
ENDCHAR
STARTCHAR 160
ENCODING 160
SWIDTH 360 0
DWIDTH 5 0
BBX 0 0 0 0
BITMAP
ENDCHAR
STARTCHAR 161
ENCODING 161
SWIDTH 72 0
DWIDTH 1 0
BBX 0 0 0 0
BITMAP
ENDCHAR
STARTCHAR 162
ENCODING 162
SWIDTH 72 0
DWIDTH 1 0
BBX 0 0 0 0
BITMAP
ENDCHAR
STARTCHAR 163
ENCODING 163
SWIDTH 72 0
DWIDTH 1 0
BBX 0 0 0 0
BITMAP
ENDCHAR
STARTCHAR 164
ENCODING 164
SWIDTH 72 0
DWIDTH 1 0
BBX 0 0 0 0
BITMAP
ENDCHAR
STARTCHAR 165
ENCODING 165
SWIDTH 72 0
DWIDTH 1 0
BBX 0 0 0 0
BITMAP
ENDCHAR
STARTCHAR 166
ENCODING 166
SWIDTH 72 0
DWIDTH 1 0
BBX 0 0 0 0
BITMAP
ENDCHAR
STARTCHAR 167
ENCODING 167
SWIDTH 72 0
DWIDTH 1 0
BBX 0 0 0 0
BITMAP
ENDCHAR
STARTCHAR 168
ENCODING 168
SWIDTH 72 0
DWIDTH 1 0
BBX 0 0 0 0
BITMAP
ENDCHAR
STARTCHAR 169
ENCODING 169
SWIDTH 72 0
DWIDTH 1 0
BBX 0 0 0 0
BITMAP
ENDCHAR
STARTCHAR 170
ENCODING 170
SWIDTH 72 0
DWIDTH 1 0
BBX 0 0 0 0
BITMAP
ENDCHAR
STARTCHAR 171
ENCODING 171
SWIDTH 72 0
DWIDTH 1 0
BBX 0 0 0 0
BITMAP
ENDCHAR
STARTCHAR 172
ENCODING 172
SWIDTH 72 0
DWIDTH 1 0
BBX 0 0 0 0
BITMAP
ENDCHAR
STARTCHAR 173
ENCODING 173
SWIDTH 72 0
DWIDTH 1 0
BBX 0 0 0 0
BITMAP
ENDCHAR
STARTCHAR 174
ENCODING 174
SWIDTH 72 0
DWIDTH 1 0
BBX 0 0 0 0
BITMAP
ENDCHAR
STARTCHAR 175
ENCODING 175
SWIDTH 72 0
DWIDTH 1 0
BBX 0 0 0 0
BITMAP
ENDCHAR
STARTCHAR 176
ENCODING 176
SWIDTH 432 0
DWIDTH 6 0
BBX 4 4 1 5
BITMAP
60
90
90
60
ENDCHAR
STARTCHAR 177
ENCODING 177
SWIDTH 216 0
DWIDTH 3 0
BBX 0 0 0 0
BITMAP
ENDCHAR
STARTCHAR 178
ENCODING 178
SWIDTH 72 0
DWIDTH 1 0
BBX 0 0 0 0
BITMAP
ENDCHAR
STARTCHAR 179
ENCODING 179
SWIDTH 72 0
DWIDTH 1 0
BBX 0 0 0 0
BITMAP
ENDCHAR
STARTCHAR 180
ENCODING 180
SWIDTH 72 0
DWIDTH 1 0
BBX 0 0 0 0
BITMAP
ENDCHAR
STARTCHAR 181
ENCODING 181
SWIDTH 72 0
DWIDTH 1 0
BBX 0 0 0 0
BITMAP
ENDCHAR
STARTCHAR 182
ENCODING 182
SWIDTH 72 0
DWIDTH 1 0
BBX 0 0 0 0
BITMAP
ENDCHAR
STARTCHAR 183
ENCODING 183
SWIDTH 72 0
DWIDTH 1 0
BBX 0 0 0 0
BITMAP
ENDCHAR
STARTCHAR 184
ENCODING 184
SWIDTH 72 0
DWIDTH 1 0
BBX 0 0 0 0
BITMAP
ENDCHAR
STARTCHAR 185
ENCODING 185
SWIDTH 72 0
DWIDTH 1 0
BBX 0 0 0 0
BITMAP
ENDCHAR
STARTCHAR 186
ENCODING 186
SWIDTH 72 0
DWIDTH 1 0
BBX 0 0 0 0
BITMAP
ENDCHAR
STARTCHAR 187
ENCODING 187
SWIDTH 72 0
DWIDTH 1 0
BBX 0 0 0 0
BITMAP
ENDCHAR
STARTCHAR 188
ENCODING 188
SWIDTH 72 0
DWIDTH 1 0
BBX 0 0 0 0
BITMAP
ENDCHAR
STARTCHAR 189
ENCODING 189
SWIDTH 72 0
DWIDTH 1 0
BBX 0 0 0 0
BITMAP
ENDCHAR
STARTCHAR 190
ENCODING 190
SWIDTH 72 0
DWIDTH 1 0
BBX 0 0 0 0
BITMAP
ENDCHAR
STARTCHAR 191
ENCODING 191
SWIDTH 72 0
DWIDTH 1 0
BBX 0 0 0 0
BITMAP
ENDCHAR
STARTCHAR 192
ENCODING 192
SWIDTH 72 0
DWIDTH 1 0
BBX 0 0 0 0
BITMAP
ENDCHAR
STARTCHAR 193
ENCODING 193
SWIDTH 72 0
DWIDTH 1 0
BBX 0 0 0 0
BITMAP
ENDCHAR
STARTCHAR 194
ENCODING 194
SWIDTH 72 0
DWIDTH 1 0
BBX 0 0 0 0
BITMAP
ENDCHAR
STARTCHAR 195
ENCODING 195
SWIDTH 72 0
DWIDTH 1 0
BBX 0 0 0 0
BITMAP
ENDCHAR
STARTCHAR 196
ENCODING 196
SWIDTH 576 0
DWIDTH 8 0
BBX 7 10 0 0
BITMAP
28
00
10
10
28
28
44
7C
82
82
ENDCHAR
STARTCHAR 197
ENCODING 197
SWIDTH 576 0
DWIDTH 8 0
BBX 7 11 0 0
BITMAP
10
28
10
00
10
28
28
44
7C
82
82
ENDCHAR
STARTCHAR 198
ENCODING 198
SWIDTH 72 0
DWIDTH 1 0
BBX 0 0 0 0
BITMAP
ENDCHAR

STARTCHAR Ccedilla
ENCODING 199
SWIDTH 480 0
DWIDTH 6 0
BBX 6 13 0 -2
BITMAP
00
00
70
88
80
80
80
80
80
88
70
20
40
ENDCHAR

STARTCHAR 200
ENCODING 200
SWIDTH 72 0
DWIDTH 1 0
BBX 0 0 0 0
BITMAP
ENDCHAR
STARTCHAR 201
ENCODING 201
SWIDTH 72 0
DWIDTH 1 0
BBX 0 0 0 0
BITMAP
ENDCHAR
STARTCHAR 202
ENCODING 202
SWIDTH 72 0
DWIDTH 1 0
BBX 0 0 0 0
BITMAP
ENDCHAR
STARTCHAR 203
ENCODING 203
SWIDTH 72 0
DWIDTH 1 0
BBX 0 0 0 0
BITMAP
ENDCHAR
STARTCHAR 204
ENCODING 204
SWIDTH 72 0
DWIDTH 1 0
BBX 0 0 0 0
BITMAP
ENDCHAR
STARTCHAR 205
ENCODING 205
SWIDTH 72 0
DWIDTH 1 0
BBX 0 0 0 0
BITMAP
ENDCHAR
STARTCHAR 206
ENCODING 206
SWIDTH 72 0
DWIDTH 1 0
BBX 0 0 0 0
BITMAP
ENDCHAR
STARTCHAR 207
ENCODING 207
SWIDTH 72 0
DWIDTH 1 0
BBX 0 0 0 0
BITMAP
ENDCHAR
STARTCHAR 208
ENCODING 208
SWIDTH 72 0
DWIDTH 1 0
BBX 0 0 0 0
BITMAP
ENDCHAR
STARTCHAR 209
ENCODING 209
SWIDTH 72 0
DWIDTH 1 0
BBX 0 0 0 0
BITMAP
ENDCHAR
STARTCHAR 210
ENCODING 210
SWIDTH 72 0
DWIDTH 1 0
BBX 0 0 0 0
BITMAP
ENDCHAR
STARTCHAR 211
ENCODING 211
SWIDTH 72 0
DWIDTH 1 0
BBX 0 0 0 0
BITMAP
ENDCHAR
STARTCHAR 212
ENCODING 212
SWIDTH 72 0
DWIDTH 1 0
BBX 0 0 0 0
BITMAP
ENDCHAR
STARTCHAR 213
ENCODING 213
SWIDTH 72 0
DWIDTH 1 0
BBX 0 0 0 0
BITMAP
ENDCHAR
STARTCHAR 214
ENCODING 214
SWIDTH 576 0
DWIDTH 8 0
BBX 7 10 0 0
BITMAP
28
00
38
44
82
82
82
82
44
38
ENDCHAR
STARTCHAR 215
ENCODING 215
SWIDTH 72 0
DWIDTH 1 0
BBX 0 0 0 0
BITMAP
ENDCHAR
STARTCHAR 216
ENCODING 216
SWIDTH 72 0
DWIDTH 1 0
BBX 0 0 0 0
BITMAP
ENDCHAR
STARTCHAR 217
ENCODING 217
SWIDTH 72 0
DWIDTH 1 0
BBX 0 0 0 0
BITMAP
ENDCHAR
STARTCHAR 218
ENCODING 218
SWIDTH 72 0
DWIDTH 1 0
BBX 0 0 0 0
BITMAP
ENDCHAR
STARTCHAR 219
ENCODING 219
SWIDTH 72 0
DWIDTH 1 0
BBX 0 0 0 0
BITMAP
ENDCHAR
STARTCHAR 220
ENCODING 220
SWIDTH 72 0
DWIDTH 1 0
BBX 0 0 0 0
BITMAP
ENDCHAR
STARTCHAR 221
ENCODING 221
SWIDTH 72 0
DWIDTH 1 0
BBX 0 0 0 0
BITMAP
ENDCHAR
STARTCHAR 222
ENCODING 222
SWIDTH 72 0
DWIDTH 1 0
BBX 0 0 0 0
BITMAP
ENDCHAR
STARTCHAR 223
ENCODING 223
SWIDTH 72 0
DWIDTH 1 0
BBX 0 0 0 0
BITMAP
ENDCHAR
STARTCHAR 224
ENCODING 224
SWIDTH 72 0
DWIDTH 1 0
BBX 0 0 0 0
BITMAP
ENDCHAR
STARTCHAR 225
ENCODING 225
SWIDTH 72 0
DWIDTH 1 0
BBX 0 0 0 0
BITMAP
ENDCHAR
STARTCHAR 226
ENCODING 226
SWIDTH 72 0
DWIDTH 1 0
BBX 0 0 0 0
BITMAP
ENDCHAR
STARTCHAR 227
ENCODING 227
SWIDTH 72 0
DWIDTH 1 0
BBX 0 0 0 0
BITMAP
ENDCHAR
STARTCHAR 228
ENCODING 228
SWIDTH 432 0
DWIDTH 6 0
BBX 5 7 0 0
BITMAP
50
00
70
88
78
88
78
ENDCHAR
STARTCHAR 229
ENCODING 229
SWIDTH 432 0
DWIDTH 6 0
BBX 5 9 0 0
BITMAP
20
50
20
00
70
88
78
88
78
ENDCHAR
STARTCHAR 230
ENCODING 230
SWIDTH 72 0
DWIDTH 1 0
BBX 0 0 0 0
BITMAP
ENDCHAR

STARTCHAR ccedilla
ENCODING 231
SWIDTH 480 0
DWIDTH 6 0
BBX 6 13 0 -2
BITMAP
00
00
00
00
00
70
88
80
80
88
70
20
40
ENDCHAR


STARTCHAR 232
ENCODING 232
SWIDTH 72 0
DWIDTH 1 0
BBX 0 0 0 0
BITMAP
ENDCHAR
STARTCHAR 233
ENCODING 233
SWIDTH 72 0
DWIDTH 1 0
BBX 0 0 0 0
BITMAP
ENDCHAR
STARTCHAR 234
ENCODING 234
SWIDTH 72 0
DWIDTH 1 0
BBX 0 0 0 0
BITMAP
ENDCHAR
STARTCHAR 235
ENCODING 235
SWIDTH 72 0
DWIDTH 1 0
BBX 0 0 0 0
BITMAP
ENDCHAR
STARTCHAR 236
ENCODING 236
SWIDTH 72 0
DWIDTH 1 0
BBX 0 0 0 0
BITMAP
ENDCHAR
STARTCHAR 237
ENCODING 237
SWIDTH 72 0
DWIDTH 1 0
BBX 0 0 0 0
BITMAP
ENDCHAR
STARTCHAR 238
ENCODING 238
SWIDTH 72 0
DWIDTH 1 0
BBX 0 0 0 0
BITMAP
ENDCHAR
STARTCHAR 239
ENCODING 239
SWIDTH 72 0
DWIDTH 1 0
BBX 0 0 0 0
BITMAP
ENDCHAR
STARTCHAR 240
ENCODING 240
SWIDTH 72 0
DWIDTH 1 0
BBX 0 0 0 0
BITMAP
ENDCHAR
STARTCHAR 241
ENCODING 241
SWIDTH 72 0
DWIDTH 1 0
BBX 0 0 0 0
BITMAP
ENDCHAR
STARTCHAR 242
ENCODING 242
SWIDTH 72 0
DWIDTH 1 0
BBX 0 0 0 0
BITMAP
ENDCHAR
STARTCHAR 243
ENCODING 243
SWIDTH 72 0
DWIDTH 1 0
BBX 0 0 0 0
BITMAP
ENDCHAR
STARTCHAR 244
ENCODING 244
SWIDTH 72 0
DWIDTH 1 0
BBX 0 0 0 0
BITMAP
ENDCHAR
STARTCHAR 245
ENCODING 245
SWIDTH 72 0
DWIDTH 1 0
BBX 0 0 0 0
BITMAP
ENDCHAR
STARTCHAR 246
ENCODING 246
SWIDTH 432 0
DWIDTH 6 0
BBX 5 7 0 0
BITMAP
50
00
70
88
88
88
70
ENDCHAR
STARTCHAR 247
ENCODING 247
SWIDTH 72 0
DWIDTH 1 0
BBX 0 0 0 0
BITMAP
ENDCHAR
STARTCHAR 248
ENCODING 248
SWIDTH 72 0
DWIDTH 1 0
BBX 0 0 0 0
BITMAP
ENDCHAR
STARTCHAR 249
ENCODING 249
SWIDTH 72 0
DWIDTH 1 0
BBX 0 0 0 0
BITMAP
ENDCHAR
STARTCHAR 250
ENCODING 250
SWIDTH 72 0
DWIDTH 1 0
BBX 0 0 0 0
BITMAP
ENDCHAR
STARTCHAR 251
ENCODING 251
SWIDTH 72 0
DWIDTH 1 0
BBX 0 0 0 0
BITMAP
ENDCHAR
STARTCHAR 252
ENCODING 252
SWIDTH 72 0
DWIDTH 1 0
BBX 0 0 0 0
BITMAP
ENDCHAR
STARTCHAR 253
ENCODING 253
SWIDTH 72 0
DWIDTH 1 0
BBX 0 0 0 0
BITMAP
ENDCHAR
STARTCHAR 254
ENCODING 254
SWIDTH 72 0
DWIDTH 1 0
BBX 0 0 0 0
BITMAP
ENDCHAR
STARTCHAR 255
ENCODING 255
SWIDTH 72 0
DWIDTH 1 0
BBX 0 0 0 0
BITMAP
ENDCHAR

STARTCHAR Gbreve
ENCODING 286
SWIDTH 480 0
DWIDTH 6 0
BBX 6 13 0 -2
BITMAP
00
88
70
00
70
88
80
80
98
88
70
00
00
ENDCHAR

STARTCHAR gbreve
ENCODING 287
SWIDTH 480 0
DWIDTH 6 0
BBX 6 13 0 -2
BITMAP
00
00
88
70
00
70
88
88
88
78
08
88
70
ENDCHAR

STARTCHAR Idotaccent
ENCODING 304
SWIDTH 480 0
DWIDTH 6 0
BBX 6 13 0 -2
BITMAP
00
20
20
00
70
20
20
20
20
20
70
00
00
ENDCHAR

STARTCHAR dotlessi
ENCODING 305
SWIDTH 480 0
DWIDTH 6 0
BBX 6 13 0 -2
BITMAP
00
00
00
00
00
60
20
20
20
20
70
00
00
ENDCHAR

STARTCHAR Scedilla
ENCODING 350
SWIDTH 480 0
DWIDTH 6 0
BBX 6 13 0 -2
BITMAP
00
00
70
88
80
80
70
08
08
88
70
20
40
ENDCHAR

STARTCHAR scedilla
ENCODING 351
SWIDTH 480 0
DWIDTH 6 0
BBX 6 13 0 -2
BITMAP
00
00
00
00
00
70
88
60
10
88
70
20
40
ENDCHAR

STARTCHAR afii10017
ENCODING 1040
SWIDTH 480 0
DWIDTH 6 0
BBX 6 13 0 -2
BITMAP
00
00
20
50
88
88
88
F8
88
88
88
00
00
ENDCHAR

STARTCHAR afii10018
ENCODING 1041
SWIDTH 480 0
DWIDTH 6 0
BBX 6 13 0 -2
BITMAP
00
00
F0
80
80
80
F0
88
88
88
F0
00
00
ENDCHAR

STARTCHAR afii10019
ENCODING 1042
SWIDTH 480 0
DWIDTH 6 0
BBX 6 13 0 -2
BITMAP
00
00
F0
88
88
88
F0
88
88
88
F0
00
00
ENDCHAR

STARTCHAR afii10020
ENCODING 1043
SWIDTH 480 0
DWIDTH 6 0
BBX 6 13 0 -2
BITMAP
00
00
F8
88
80
80
80
80
80
80
80
00
00
ENDCHAR

STARTCHAR afii10021
ENCODING 1044
SWIDTH 480 0
DWIDTH 6 0
BBX 6 13 0 -2
BITMAP
00
00
30
50
50
50
50
50
50
50
F8
88
00
ENDCHAR

STARTCHAR afii10022
ENCODING 1045
SWIDTH 480 0
DWIDTH 6 0
BBX 6 13 0 -2
BITMAP
00
00
F8
80
80
80
F0
80
80
80
F8
00
00
ENDCHAR

STARTCHAR afii10024
ENCODING 1046
SWIDTH 480 0
DWIDTH 6 0
BBX 6 13 0 -2
BITMAP
00
00
A8
A8
A8
70
20
70
A8
A8
A8
00
00
ENDCHAR

STARTCHAR afii10025
ENCODING 1047
SWIDTH 480 0
DWIDTH 6 0
BBX 6 13 0 -2
BITMAP
00
00
70
88
08
08
30
08
08
88
70
00
00
ENDCHAR

STARTCHAR afii10026
ENCODING 1048
SWIDTH 480 0
DWIDTH 6 0
BBX 6 13 0 -2
BITMAP
00
00
88
88
98
98
A8
A8
C8
C8
88
00
00
ENDCHAR

STARTCHAR afii10027
ENCODING 1049
SWIDTH 480 0
DWIDTH 6 0
BBX 6 13 0 -2
BITMAP
00
88
70
00
88
98
98
A8
C8
C8
88
00
00
ENDCHAR

STARTCHAR afii10028
ENCODING 1050
SWIDTH 480 0
DWIDTH 6 0
BBX 6 13 0 -2
BITMAP
00
00
88
88
90
A0
C0
A0
90
88
88
00
00
ENDCHAR

STARTCHAR afii10029
ENCODING 1051
SWIDTH 480 0
DWIDTH 6 0
BBX 6 13 0 -2
BITMAP
00
00
38
48
48
48
48
48
48
88
88
00
00
ENDCHAR

STARTCHAR afii10030
ENCODING 1052
SWIDTH 480 0
DWIDTH 6 0
BBX 6 13 0 -2
BITMAP
00
00
88
D8
D8
A8
A8
88
88
88
88
00
00
ENDCHAR

STARTCHAR afii10031
ENCODING 1053
SWIDTH 480 0
DWIDTH 6 0
BBX 6 13 0 -2
BITMAP
00
00
88
88
88
88
F8
88
88
88
88
00
00
ENDCHAR

STARTCHAR afii10032
ENCODING 1054
SWIDTH 480 0
DWIDTH 6 0
BBX 6 13 0 -2
BITMAP
00
00
70
88
88
88
88
88
88
88
70
00
00
ENDCHAR

STARTCHAR afii10033
ENCODING 1055
SWIDTH 480 0
DWIDTH 6 0
BBX 6 13 0 -2
BITMAP
00
00
F8
88
88
88
88
88
88
88
88
00
00
ENDCHAR

STARTCHAR afii10034
ENCODING 1056
SWIDTH 480 0
DWIDTH 6 0
BBX 6 13 0 -2
BITMAP
00
00
F0
88
88
88
88
F0
80
80
80
00
00
ENDCHAR

STARTCHAR afii10035
ENCODING 1057
SWIDTH 480 0
DWIDTH 6 0
BBX 6 13 0 -2
BITMAP
00
00
70
88
80
80
80
80
80
88
70
00
00
ENDCHAR

STARTCHAR afii10036
ENCODING 1058
SWIDTH 480 0
DWIDTH 6 0
BBX 6 13 0 -2
BITMAP
00
00
F8
20
20
20
20
20
20
20
20
00
00
ENDCHAR

STARTCHAR afii10037
ENCODING 1059
SWIDTH 480 0
DWIDTH 6 0
BBX 6 13 0 -2
BITMAP
00
00
88
88
88
88
88
78
08
88
70
00
00
ENDCHAR

STARTCHAR afii10038
ENCODING 1060
SWIDTH 480 0
DWIDTH 6 0
BBX 6 13 0 -2
BITMAP
00
00
20
70
A8
A8
A8
A8
70
20
20
00
00
ENDCHAR

STARTCHAR afii10039
ENCODING 1061
SWIDTH 480 0
DWIDTH 6 0
BBX 6 13 0 -2
BITMAP
00
00
88
88
50
50
20
50
50
88
88
00
00
ENDCHAR

STARTCHAR afii10040
ENCODING 1062
SWIDTH 480 0
DWIDTH 6 0
BBX 6 13 0 -2
BITMAP
00
00
90
90
90
90
90
90
90
90
F8
08
08
ENDCHAR

STARTCHAR afii10041
ENCODING 1063
SWIDTH 480 0
DWIDTH 6 0
BBX 6 13 0 -2
BITMAP
00
00
88
88
88
88
78
08
08
08
08
00
00
ENDCHAR

STARTCHAR afii10042
ENCODING 1064
SWIDTH 480 0
DWIDTH 6 0
BBX 6 13 0 -2
BITMAP
00
00
A8
A8
A8
A8
A8
A8
A8
A8
F8
00
00
ENDCHAR

STARTCHAR afii10043
ENCODING 1065
SWIDTH 480 0
DWIDTH 6 0
BBX 6 13 0 -2
BITMAP
00
00
A8
A8
A8
A8
A8
A8
A8
A8
F8
08
08
ENDCHAR

STARTCHAR afii10044
ENCODING 1066
SWIDTH 480 0
DWIDTH 6 0
BBX 6 13 0 -2
BITMAP
00
00
C0
40
40
40
70
48
48
48
70
00
00
ENDCHAR

STARTCHAR afii10045
ENCODING 1067
SWIDTH 480 0
DWIDTH 6 0
BBX 6 13 0 -2
BITMAP
00
00
88
88
88
E8
98
98
98
98
E8
00
00
ENDCHAR

STARTCHAR afii10046
ENCODING 1068
SWIDTH 480 0
DWIDTH 6 0
BBX 6 13 0 -2
BITMAP
00
00
80
80
80
80
F0
88
88
88
F0
00
00
ENDCHAR

STARTCHAR afii10047
ENCODING 1069
SWIDTH 480 0
DWIDTH 6 0
BBX 6 13 0 -2
BITMAP
00
00
E0
10
08
08
78
08
08
10
E0
00
00
ENDCHAR

STARTCHAR afii10048
ENCODING 1070
SWIDTH 480 0
DWIDTH 6 0
BBX 6 13 0 -2
BITMAP
00
00
90
A8
A8
A8
E8
A8
A8
A8
90
00
00
ENDCHAR

STARTCHAR afii10049
ENCODING 1071
SWIDTH 480 0
DWIDTH 6 0
BBX 6 13 0 -2
BITMAP
00
00
78
88
88
88
78
28
48
88
88
00
00
ENDCHAR

STARTCHAR afii10065
ENCODING 1072
SWIDTH 480 0
DWIDTH 6 0
BBX 6 13 0 -2
BITMAP
00
00
00
00
00
70
08
78
88
98
68
00
00
ENDCHAR

STARTCHAR afii10066
ENCODING 1073
SWIDTH 480 0
DWIDTH 6 0
BBX 6 13 0 -2
BITMAP
00
00
08
70
80
F0
88
88
88
88
70
00
00
ENDCHAR

STARTCHAR afii10067
ENCODING 1074
SWIDTH 480 0
DWIDTH 6 0
BBX 6 13 0 -2
BITMAP
00
00
00
00
00
F0
88
F0
88
88
F0
00
00
ENDCHAR

STARTCHAR afii10068
ENCODING 1075
SWIDTH 480 0
DWIDTH 6 0
BBX 6 13 0 -2
BITMAP
00
00
00
00
00
F8
88
80
80
80
80
00
00
ENDCHAR

STARTCHAR afii10069
ENCODING 1076
SWIDTH 480 0
DWIDTH 6 0
BBX 6 13 0 -2
BITMAP
00
00
00
00
00
30
50
50
50
50
F8
88
00
ENDCHAR

STARTCHAR afii10070
ENCODING 1077
SWIDTH 480 0
DWIDTH 6 0
BBX 6 13 0 -2
BITMAP
00
00
00
00
00
70
88
F8
80
88
70
00
00
ENDCHAR

STARTCHAR afii10072
ENCODING 1078
SWIDTH 480 0
DWIDTH 6 0
BBX 6 13 0 -2
BITMAP
00
00
00
00
00
A8
A8
70
70
A8
A8
00
00
ENDCHAR

STARTCHAR afii10073
ENCODING 1079
SWIDTH 480 0
DWIDTH 6 0
BBX 6 13 0 -2
BITMAP
00
00
00
00
00
70
88
30
08
88
70
00
00
ENDCHAR

STARTCHAR afii10074
ENCODING 1080
SWIDTH 480 0
DWIDTH 6 0
BBX 6 13 0 -2
BITMAP
00
00
00
00
00
88
88
98
A8
C8
88
00
00
ENDCHAR

STARTCHAR afii10075
ENCODING 1081
SWIDTH 480 0
DWIDTH 6 0
BBX 6 13 0 -2
BITMAP
00
00
88
70
00
88
88
98
A8
C8
88
00
00
ENDCHAR

STARTCHAR afii10076
ENCODING 1082
SWIDTH 480 0
DWIDTH 6 0
BBX 6 13 0 -2
BITMAP
00
00
00
00
00
88
90
E0
90
88
88
00
00
ENDCHAR

STARTCHAR afii10077
ENCODING 1083
SWIDTH 480 0
DWIDTH 6 0
BBX 6 13 0 -2
BITMAP
00
00
00
00
00
38
48
48
48
48
88
00
00
ENDCHAR

STARTCHAR afii10078
ENCODING 1084
SWIDTH 480 0
DWIDTH 6 0
BBX 6 13 0 -2
BITMAP
00
00
00
00
00
88
D8
A8
A8
88
88
00
00
ENDCHAR

STARTCHAR afii10079
ENCODING 1085
SWIDTH 480 0
DWIDTH 6 0
BBX 6 13 0 -2
BITMAP
00
00
00
00
00
88
88
F8
88
88
88
00
00
ENDCHAR

STARTCHAR afii10080
ENCODING 1086
SWIDTH 480 0
DWIDTH 6 0
BBX 6 13 0 -2
BITMAP
00
00
00
00
00
70
88
88
88
88
70
00
00
ENDCHAR

STARTCHAR afii10081
ENCODING 1087
SWIDTH 480 0
DWIDTH 6 0
BBX 6 13 0 -2
BITMAP
00
00
00
00
00
F8
88
88
88
88
88
00
00
ENDCHAR

STARTCHAR afii10082
ENCODING 1088
SWIDTH 480 0
DWIDTH 6 0
BBX 6 13 0 -2
BITMAP
00
00
00
00
00
F0
88
88
88
F0
80
80
80
ENDCHAR

STARTCHAR afii10083
ENCODING 1089
SWIDTH 480 0
DWIDTH 6 0
BBX 6 13 0 -2
BITMAP
00
00
00
00
00
70
88
80
80
88
70
00
00
ENDCHAR

STARTCHAR afii10084
ENCODING 1090
SWIDTH 480 0
DWIDTH 6 0
BBX 6 13 0 -2
BITMAP
00
00
00
00
00
F8
A8
20
20
20
20
00
00
ENDCHAR

STARTCHAR afii10085
ENCODING 1091
SWIDTH 480 0
DWIDTH 6 0
BBX 6 13 0 -2
BITMAP
00
00
00
00
00
88
88
88
98
68
08
88
70
ENDCHAR

STARTCHAR afii10086
ENCODING 1092
SWIDTH 480 0
DWIDTH 6 0
BBX 6 13 0 -2
BITMAP
00
00
00
20
20
70
A8
A8
A8
A8
70
20
20
ENDCHAR

STARTCHAR afii10087
ENCODING 1093
SWIDTH 480 0
DWIDTH 6 0
BBX 6 13 0 -2
BITMAP
00
00
00
00
00
88
50
20
50
88
88
00
00
ENDCHAR

STARTCHAR afii10088
ENCODING 1094
SWIDTH 480 0
DWIDTH 6 0
BBX 6 13 0 -2
BITMAP
00
00
00
00
00
90
90
90
90
90
F8
08
08
ENDCHAR

STARTCHAR afii10089
ENCODING 1095
SWIDTH 480 0
DWIDTH 6 0
BBX 6 13 0 -2
BITMAP
00
00
00
00
00
88
88
88
78
08
08
00
00
ENDCHAR

STARTCHAR afii10090
ENCODING 1096
SWIDTH 480 0
DWIDTH 6 0
BBX 6 13 0 -2
BITMAP
00
00
00
00
00
A8
A8
A8
A8
A8
F8
00
00
ENDCHAR

STARTCHAR afii10091
ENCODING 1097
SWIDTH 480 0
DWIDTH 6 0
BBX 6 13 0 -2
BITMAP
00
00
00
00
00
A8
A8
A8
A8
A8
F8
08
08
ENDCHAR

STARTCHAR afii10092
ENCODING 1098
SWIDTH 480 0
DWIDTH 6 0
BBX 6 13 0 -2
BITMAP
00
00
00
00
00
C0
40
70
48
48
70
00
00
ENDCHAR

STARTCHAR afii10093
ENCODING 1099
SWIDTH 480 0
DWIDTH 6 0
BBX 6 13 0 -2
BITMAP
00
00
00
00
00
88
88
E8
98
98
E8
00
00
ENDCHAR

STARTCHAR afii10094
ENCODING 1100
SWIDTH 480 0
DWIDTH 6 0
BBX 6 13 0 -2
BITMAP
00
00
00
00
00
80
80
F0
88
88
F0
00
00
ENDCHAR

STARTCHAR afii10095
ENCODING 1101
SWIDTH 480 0
DWIDTH 6 0
BBX 6 13 0 -2
BITMAP
00
00
00
00
00
F0
08
38
08
08
F0
00
00
ENDCHAR

STARTCHAR afii10096
ENCODING 1102
SWIDTH 480 0
DWIDTH 6 0
BBX 6 13 0 -2
BITMAP
00
00
00
00
00
90
A8
A8
E8
A8
90
00
00
ENDCHAR

STARTCHAR afii10097
ENCODING 1103
SWIDTH 480 0
DWIDTH 6 0
BBX 6 13 0 -2
BITMAP
00
00
00
00
00
78
88
88
78
48
88
00
00
ENDCHAR
ENDFONT
